<svg width="10" height="9" viewBox="0 0 10 9" fill="none" xmlns="http://www.w3.org/2000/svg">
<path d="M3.08221 8.13805C3.16316 8.219 3.27297 8.26447 3.38744 8.26447C3.50195 8.26447 3.61173 8.21897 3.69265 8.13805L9.57746 2.25325C9.65844 2.1723 9.7039 2.06251 9.7039 1.94804C9.7039 1.83353 9.65844 1.72375 9.57746 1.6428L8.35654 0.421907C8.18799 0.253361 7.91467 0.253332 7.74609 0.421907L3.38756 4.7805L2.16661 3.55955C2.08566 3.4786 1.97585 3.4331 1.86137 3.4331C1.7469 3.4331 1.63711 3.4786 1.55616 3.55955L0.335242 4.78047C0.166695 4.94904 0.166695 5.22234 0.335242 5.39091L3.08221 8.13805Z" fill="white"/>
</svg>
